# Blender v2.91.0 OBJ File: ''
# www.blender.org
mtllib bigrocks.mtl
o bigrocks_lake2.019
v 0.704769 -0.485171 -3.668872
v 2.510860 -0.298866 -2.837183
v 2.394822 0.571872 -2.920683
v 4.832711 -0.433482 -2.917742
v 4.722713 0.492279 -2.445960
v 2.579509 1.474005 -2.893358
v 4.765350 1.426361 -2.839510
v 4.435632 2.029859 -3.127351
v 2.802370 1.948555 -3.129522
v 1.678910 1.489039 -3.528919
v 1.915984 1.784009 -3.541296
v 3.008849 2.433885 -4.086590
v 1.895234 2.244119 -4.436338
v 5.065078 2.211036 -4.151762
v 4.700535 1.980331 -5.189545
v 3.275227 2.086386 -5.557827
v 2.541955 1.932329 -5.547177
v 3.198113 1.572562 -6.038852
v 2.150823 1.548000 -6.011280
v 5.055544 1.560158 -5.528615
v 3.330129 0.630242 -6.299489
v 5.006558 0.730549 -5.624141
v 3.349217 -0.383580 -6.646676
v 1.618659 -0.623373 -6.424221
v 2.300679 -0.762010 -5.956032
v 2.697141 -0.648319 -5.473008
v 4.977079 -0.528185 -5.898628
v 5.512227 -0.611852 -4.925937
v 0.570024 -0.541030 -4.939912
v 5.710835 1.630533 -4.129807
v 0.840246 0.932436 -4.934275
v 1.474420 1.818580 -4.756493
v 1.001713 0.805387 -3.666970
v 1.716101 1.306805 -3.566420
v 2.576872 1.319075 -2.940825
v 5.785540 0.677245 -4.191082
v 4.745815 1.307289 -2.883061
v 5.030182 1.459036 -5.496612
v 5.671199 1.566139 -4.133691
v 3.185092 1.430432 -6.001995
v 2.146341 1.373673 -5.978285
v 1.480661 1.696332 -4.756215
v 1.628558 0.708126 -6.258139
v 2.396389 0.538673 -7.729788
v -1.293698 0.170645 -8.391498
v -0.929336 1.606907 -8.604477
v -4.662525 0.472005 -7.586211
v -4.331707 2.077090 -8.415813
v -1.190160 2.883757 -8.619270
v -4.150573 3.443597 -8.145603
v -3.409556 4.596069 -7.781169
v -1.205285 3.864655 -8.208224
v 1.857100 2.562131 -8.165426
v 1.049160 3.264556 -7.972803
v -0.880303 4.812751 -6.506709
v 1.337067 4.238628 -6.618509
v -3.588421 4.887995 -5.855695
v -3.224942 4.484068 -4.357932
v -1.140642 4.173438 -4.093913
v 0.887053 3.595619 -4.565379
v -1.176387 3.102118 -3.317044
v 1.408556 2.742928 -3.893464
v -3.757129 3.681456 -3.695820
v -0.842508 1.676160 -2.812055
v -3.916492 2.348788 -3.515090
v -1.195155 0.006487 -2.732510
v 2.317032 0.205863 -3.714336
v 1.048405 -0.432599 -4.259167
v -1.019341 -0.449024 -4.943461
v -4.347938 0.231599 -3.376400
v -5.881748 0.124763 -4.973360
v 2.933127 -0.303893 -6.043357
v -5.241009 3.996522 -5.758358
v 3.092028 1.775169 -6.049110
v 2.695285 3.147073 -6.255610
v 2.388016 1.530789 -8.047587
v 1.830114 2.501454 -8.102962
v -1.194337 2.835974 -8.542549
v -5.752164 2.090764 -5.633220
v -4.124725 3.390024 -8.080110
v -3.741864 3.611702 -3.755409
v -5.185799 3.922434 -5.764332
v -1.189781 3.033887 -3.381052
v 1.378465 2.671732 -3.947932
v 2.642277 3.073789 -6.248758
v 1.725475 1.545243 -3.555184
vt 0.375000 0.000000
vt 0.500000 0.000000
vt 0.500000 0.125000
vt 0.625000 0.000000
vt 0.625000 0.125000
vt 0.500000 0.625000
vt 0.625000 0.625000
vt 0.500000 0.750000
vt 0.375000 0.750000
vt 0.414063 0.789063
vt 0.500000 0.875000
vt 0.625000 0.750000
vt 0.625000 0.875000
vt 0.500000 1.000000
vt 0.625000 1.000000
vt 0.375000 0.875000
vt 0.750000 0.000000
vt 0.875000 0.125000
vt 0.875000 0.000000
vt 0.250000 0.125000
vt 0.125000 0.000000
vt 0.250000 0.000000
vt 0.375000 0.125000
vt 0.375000 0.184936
vt 0.500000 0.184936
vt 0.750000 0.125000
vt 0.625000 0.184936
vt 0.875000 0.184936
vt 0.750000 0.184936
vt 0.500000 0.565064
vt 0.375000 0.565064
vt 0.125000 0.184936
vt 0.250000 0.184936
vt 0.625000 0.184936
vt 0.500000 0.184936
vt 0.375000 0.184936
vt 0.375000 0.565064
vt 0.500000 0.565064
vt 0.625000 0.565064
vt 0.625000 0.565064
vt 0.875000 0.184936
vt 0.750000 0.184936
vt 0.250000 0.184936
vt 0.125000 0.184936
vt 0.375000 0.625000
vt 0.125000 0.125000
vt 0.375000 1.000000
vt 0.375000 0.000000
vt 0.500000 0.000000
vt 0.500000 0.125000
vt 0.625000 0.000000
vt 0.625000 0.125000
vt 0.500000 0.625000
vt 0.625000 0.625000
vt 0.500000 0.750000
vt 0.375000 0.750000
vt 0.414063 0.789063
vt 0.500000 0.875000
vt 0.625000 0.750000
vt 0.625000 0.875000
vt 0.500000 1.000000
vt 0.625000 1.000000
vt 0.375000 0.875000
vt 0.750000 0.000000
vt 0.875000 0.125000
vt 0.875000 0.000000
vt 0.250000 0.125000
vt 0.125000 0.000000
vt 0.250000 0.000000
vt 0.375000 0.125000
vt 0.375000 0.184936
vt 0.500000 0.184936
vt 0.750000 0.125000
vt 0.625000 0.184936
vt 0.875000 0.184936
vt 0.750000 0.184936
vt 0.500000 0.565064
vt 0.375000 0.565064
vt 0.125000 0.184936
vt 0.250000 0.184936
vt 0.375000 0.625000
vt 0.625000 0.565064
vt 0.125000 0.125000
vt 0.375000 1.000000
vt 0.625000 0.250000
vt 0.500000 0.250000
vt 0.375000 0.250000
vt 0.500000 0.375000
vt 0.375000 0.375000
vt 0.625000 0.375000
vt 0.625000 0.500000
vt 0.500000 0.500000
vt 0.375000 0.500000
vt 0.875000 0.250000
vt 0.750000 0.250000
vt 0.250000 0.250000
vt 0.125000 0.250000
vt 0.500000 0.184936
vt 0.625000 0.184936
vt 0.625000 0.250000
vt 0.500000 0.250000
vt 0.375000 0.184936
vt 0.375000 0.250000
vt 0.500000 0.375000
vt 0.375000 0.375000
vt 0.625000 0.375000
vt 0.625000 0.500000
vt 0.500000 0.500000
vt 0.375000 0.500000
vt 0.500000 0.565064
vt 0.375000 0.565064
vt 0.625000 0.565064
vt 0.875000 0.184936
vt 0.875000 0.250000
vt 0.750000 0.250000
vt 0.750000 0.184936
vt 0.250000 0.250000
vt 0.250000 0.184936
vt 0.125000 0.250000
vt 0.125000 0.184936
vn -0.4207 0.0309 0.9067
vn 0.0046 -0.4536 0.8912
vn 0.3392 0.3105 -0.8880
vn -0.1640 0.3168 -0.9342
vn 0.0778 -0.9194 -0.3856
vn 0.0330 -0.9941 -0.1037
vn -0.0530 -0.9904 0.1276
vn -0.0174 -0.9913 0.1302
vn 0.9445 -0.0530 0.3243
vn 0.8761 0.0830 -0.4749
vn -0.8036 0.1496 -0.5760
vn -0.9791 0.1792 0.0959
vn -0.3860 0.3815 0.8399
vn -0.1968 0.0743 0.9776
vn 0.8130 0.2571 0.5224
vn 0.8913 0.1424 -0.4304
vn 0.3258 0.3808 -0.8654
vn -0.0401 0.3418 -0.9389
vn -0.6058 0.6232 -0.4946
vn -0.7745 0.6120 0.1600
vn -0.0286 -0.3130 0.9493
vn -0.5631 -0.2557 0.7858
vn -0.0156 -0.2147 -0.9766
vn 0.2535 -0.3003 -0.9195
vn 0.8417 -0.3934 -0.3698
vn 0.7765 -0.3803 0.5024
vn -0.9790 -0.1558 0.1318
vn -0.8835 -0.0574 -0.4650
vn -0.0045 0.3906 -0.9206
vn -0.0184 0.1239 -0.9921
vn 0.4239 0.1835 -0.8869
vn 0.2586 0.1584 -0.9529
vn -0.5935 0.6571 -0.4647
vn -0.8517 0.0711 -0.5192
vn -0.5816 0.1632 0.7970
vn -0.4561 0.1036 0.8839
vn -0.1971 0.0675 0.9780
vn -0.0209 0.4730 0.8808
vn 0.8768 0.0840 -0.4735
vn 0.8781 0.0547 -0.4753
vn 0.7959 0.0635 0.6021
vn 0.7945 -0.4190 0.4395
vn -0.9643 0.2217 0.1451
vn -0.5700 0.7408 0.3553
vn 0.0868 -0.9956 0.0346
vn -0.1602 -0.9854 -0.0585
vn -0.0040 -0.9962 0.0871
vn 0.0115 -0.9768 -0.2139
vn 0.3173 -0.9476 -0.0374
vn 0.0069 -0.9746 0.2237
vn 0.1917 -0.1914 -0.9626
vn -0.2467 -0.4044 -0.8807
vn -0.2034 0.0894 0.9750
vn 0.2698 -0.0111 0.9629
vn 0.1933 -0.8302 0.5228
vn -0.1164 -0.9773 0.1772
vn -0.1271 -0.9780 -0.1656
vn -0.0128 -0.9843 -0.1759
vn -0.9039 -0.0340 -0.4263
vn -0.7144 0.1897 0.6735
vn 0.9601 -0.0726 0.2699
vn 0.9393 -0.0727 -0.3353
vn 0.1663 0.0394 -0.9853
vn -0.0499 0.0395 -0.9980
vn -0.8622 0.2488 -0.4413
vn -0.7594 0.2770 0.5887
vn -0.1343 0.3536 0.9257
vn 0.2519 0.4282 0.8679
vn 0.7934 0.3512 0.4972
vn 0.9008 0.2583 -0.3489
vn 0.2742 0.3908 0.8787
vn 0.2784 0.0088 0.9604
vn -0.1920 0.1031 0.9760
vn -0.0980 0.1991 0.9751
vn 0.7855 0.4051 0.4678
vn 0.8226 0.3064 0.4790
vn 0.1523 0.0825 -0.9849
vn 0.1512 -0.3004 -0.9418
vn -0.0726 -0.1283 -0.9891
vn -0.1020 0.2615 -0.9598
vn -0.7458 0.2556 0.6152
vn -0.7500 0.2222 0.6229
vn -0.8622 0.2345 -0.4490
vn -0.8870 -0.0934 -0.4523
vn 0.9425 -0.0947 -0.3204
vn 0.7767 0.4196 -0.4697
vn 0.1723 -0.8582 -0.4836
vn 0.3307 -0.8998 0.2844
vn -0.1141 -0.9765 -0.1830
vn -0.1089 -0.9753 0.1923
vn -0.0574 -0.9787 0.1971
vn 0.0235 -0.9986 -0.0472
vn -0.0170 0.4357 0.8999
vn -0.4659 0.5116 0.7219
vn -0.3076 0.8596 0.4080
vn 0.0418 0.9415 0.3343
vn 0.1112 0.9675 -0.2273
vn -0.1243 0.9500 -0.2865
vn -0.0888 0.7436 -0.6627
vn 0.2124 0.6797 -0.7021
vn 0.6077 0.7164 -0.3429
vn 0.5946 0.6229 0.5083
vn -0.7650 0.5728 0.2943
vn -0.4006 0.8122 -0.4240
vn -0.0715 0.3622 -0.9294
vn 0.1875 0.4115 -0.8919
vn 0.2262 0.8034 -0.5507
vn 0.0833 0.9419 -0.3254
vn 0.0980 0.9622 0.2541
vn 0.2883 0.9072 0.3063
vn 0.2914 0.6213 0.7274
vn 0.0065 0.6078 0.7941
vn -0.4695 0.7859 0.4023
vn -0.5945 0.7379 -0.3195
vn 0.5735 0.6445 -0.5057
vn 0.5488 0.7388 0.3911
vn -0.2384 -0.8077 -0.5393
vn 0.0050 -0.7893 -0.6140
vn 0.0738 -0.6590 0.7485
vn -0.2515 -0.6476 0.7192
vn -0.7169 -0.5478 0.4313
vn -0.7749 -0.5935 -0.2175
vn 0.8022 -0.5703 -0.1764
vn 0.7692 -0.5498 0.3257
usemtl lambert7SG
s off
f 1/1/1 2/2/1 3/3/1
f 2/2/2 4/4/2 5/5/2
f 21/6/3 22/7/3 23/8/3
f 24/9/4 21/6/4 23/8/4
f 24/9/5 23/8/5 25/10/5
f 26/11/6 27/12/6 28/13/6
f 2/14/7 26/11/7 4/15/7
f 29/16/8 26/11/8 2/14/8
f 5/5/9 4/4/9 28/17/9
f 22/18/10 28/17/10 27/19/10
f 31/20/11 24/21/11 29/22/11
f 31/20/12 29/22/12 1/1/12
f 33/23/13 3/3/13 34/24/13
f 3/3/14 5/5/14 35/25/14
f 5/5/15 36/26/15 37/27/15
f 36/26/16 38/28/16 39/29/16
f 40/30/17 22/7/17 21/6/17
f 41/31/18 40/30/18 21/6/18
f 41/32/19 31/20/19 42/33/19
f 31/20/20 33/23/20 42/33/20
f 35/25/21 37/27/21 7/34/21 6/35/21
f 34/24/22 35/25/22 6/35/22 10/36/22
f 40/30/23 41/31/23 19/37/23 18/38/23
f 38/39/24 40/30/24 18/38/24 20/40/24
f 20/41/25 30/42/25 39/29/25 38/28/25
f 30/42/26 7/34/26 37/27/26 39/29/26
f 10/36/27 32/43/27 42/33/27 34/24/27
f 32/43/28 19/44/28 41/32/28 42/33/28
f 41/31/29 21/6/29 43/45/29
f 43/45/30 21/6/30 24/9/30
f 23/8/31 22/7/31 27/12/31
f 40/30/32 38/39/32 22/7/32
f 43/46/33 31/20/33 41/32/33
f 43/46/34 24/21/34 31/20/34
f 34/24/35 3/3/35 35/25/35
f 1/1/36 3/3/36 33/23/36
f 2/2/37 5/5/37 3/3/37
f 35/25/38 5/5/38 37/27/38
f 36/26/39 28/17/39 22/18/39
f 36/26/40 22/18/40 38/28/40
f 37/27/41 36/26/41 39/29/41
f 5/5/42 28/17/42 36/26/42
f 31/20/43 1/1/43 33/23/43
f 42/33/44 33/23/44 34/24/44
f 29/16/45 2/14/45 1/47/45
f 24/9/46 25/10/46 29/16/46
f 4/15/47 26/11/47 28/13/47
f 23/8/48 27/12/48 26/11/48
f 25/10/49 23/8/49 26/11/49
f 29/16/50 25/10/50 26/11/50
f 44/48/51 45/49/51 46/50/51
f 45/49/52 47/51/52 48/52/52
f 64/53/53 65/54/53 66/55/53
f 67/56/54 64/53/54 66/55/54
f 67/56/55 66/55/55 68/57/55
f 69/58/56 70/59/56 71/60/56
f 45/61/57 69/58/57 47/62/57
f 72/63/58 69/58/58 45/61/58
f 48/52/59 47/51/59 71/64/59
f 65/65/60 71/64/60 70/66/60
f 74/67/61 67/68/61 72/69/61
f 74/67/62 72/69/62 44/48/62
f 76/70/63 46/50/63 77/71/63
f 46/50/64 48/52/64 78/72/64
f 48/52/65 79/73/65 80/74/65
f 79/73/66 81/75/66 82/76/66
f 83/77/67 65/54/67 64/53/67
f 84/78/68 83/77/68 64/53/68
f 84/79/69 74/67/69 85/80/69
f 74/67/70 76/70/70 85/80/70
f 84/78/71 64/53/71 86/81/71
f 86/81/72 64/53/72 67/56/72
f 66/55/73 65/54/73 70/59/73
f 83/77/74 81/82/74 65/54/74
f 86/83/75 74/67/75 84/79/75
f 86/83/76 67/68/76 74/67/76
f 77/71/77 46/50/77 78/72/77
f 44/48/78 46/50/78 76/70/78
f 45/49/79 48/52/79 46/50/79
f 78/72/80 48/52/80 80/74/80
f 79/73/81 71/64/81 65/65/81
f 79/73/82 65/65/82 81/75/82
f 80/74/83 79/73/83 82/76/83
f 48/52/84 71/64/84 79/73/84
f 74/67/85 44/48/85 76/70/85
f 85/80/86 76/70/86 77/71/86
f 72/63/87 45/61/87 44/84/87
f 67/56/88 68/57/88 72/63/88
f 47/62/89 69/58/89 71/60/89
f 66/55/90 70/59/90 69/58/90
f 68/57/91 66/55/91 69/58/91
f 72/63/92 68/57/92 69/58/92
usemtl lambert8SG
f 6/35/93 7/34/93 8/85/93 9/86/93
f 10/36/94 6/35/94 9/86/94 11/87/94
f 11/87/95 9/86/95 12/88/95 13/89/95
f 9/86/96 8/85/96 14/90/96 12/88/96
f 12/88/97 14/90/97 15/91/97 16/92/97
f 13/89/98 12/88/98 16/92/98 17/93/98
f 17/93/99 16/92/99 18/38/99 19/37/99
f 16/92/100 15/91/100 20/40/100 18/38/100
f 20/41/101 15/94/101 14/95/101 30/42/101
f 30/42/102 14/95/102 8/85/102 7/34/102
f 10/36/103 11/87/103 13/96/103 32/43/103
f 32/43/104 13/96/104 17/97/104 19/44/104
f 49/98/105 50/99/105 51/100/105 52/101/105
f 53/102/106 49/98/106 52/101/106 54/103/106
f 54/103/107 52/101/107 55/104/107 56/105/107
f 52/101/108 51/100/108 57/106/108 55/104/108
f 55/104/109 57/106/109 58/107/109 59/108/109
f 56/105/110 55/104/110 59/108/110 60/109/110
f 60/109/111 59/108/111 61/110/111 62/111/111
f 59/108/112 58/107/112 63/112/112 61/110/112
f 63/113/113 58/114/113 57/115/113 73/116/113
f 73/116/114 57/115/114 51/100/114 50/99/114
f 53/102/115 54/103/115 56/117/115 75/118/115
f 75/118/116 56/117/116 60/119/116 62/120/116
f 78/72/117 80/74/117 50/99/117 49/98/117
f 77/71/118 78/72/118 49/98/118 53/102/118
f 83/77/119 84/78/119 62/111/119 61/110/119
f 81/82/120 83/77/120 61/110/120 63/112/120
f 63/113/121 73/116/121 82/76/121 81/75/121
f 73/116/122 50/99/122 80/74/122 82/76/122
f 53/102/123 75/118/123 85/80/123 77/71/123
f 75/118/124 62/120/124 84/79/124 85/80/124
