# Blender v2.91.0 OBJ File: ''
# www.blender.org
mtllib rocks.mtl
o rock_lake2.007
v 8.577741 -0.168469 0.326549
v 8.177519 -0.207924 0.038384
v 8.012612 0.251672 0.108832
v 8.513605 0.127447 0.383628
v 7.526604 -0.070796 -0.159694
v 7.600712 0.305723 -0.047087
v 7.529596 0.831322 0.097835
v 8.075358 0.726414 0.177122
v 8.541915 0.610577 0.432328
v 8.274024 1.236490 0.563162
v 8.076083 1.351518 0.414475
v 7.974259 1.432752 0.756385
v 8.254515 1.286606 0.845864
v 7.807535 1.339857 0.413718
v 7.657911 1.418804 0.654736
v 7.590963 1.348693 0.921767
v 7.836343 1.353893 1.086125
v 8.096192 1.236744 1.083622
v 7.659883 0.337979 1.556924
v 7.400100 0.447987 1.538352
v 7.321379 0.121230 1.632024
v 7.663730 0.069755 1.656137
v 7.134656 0.454360 1.388663
v 7.007514 0.215161 1.445911
v 7.128445 -0.049137 1.571479
v 7.439444 -0.234371 1.754800
v 7.813776 -0.200994 1.791032
v 8.284007 -0.327215 1.410628
v 7.601278 -0.348418 1.191285
v 7.878936 -0.362111 0.557100
v 8.544183 -0.330870 0.770864
v 6.803787 -0.066079 0.939677
v 7.182620 -0.204263 0.314751
v 6.860513 0.118239 -0.220480
v 6.601669 0.055310 0.013370
v 6.569925 0.393459 -0.031444
v 6.889028 0.384001 -0.339740
v 6.482820 0.156890 0.322783
v 6.399384 0.434108 0.364550
v 8.515843 0.093924 0.871454
v 8.247745 0.097137 1.384823
v 8.511479 0.632374 0.900433
v 8.176111 0.688290 1.416301
v 7.192836 0.985420 0.378834
v 7.099008 0.886786 0.958416
v 7.588126 0.883671 1.348343
v 6.692244 0.409349 1.023572
v 6.776491 -0.103598 0.126812
v 7.086078 0.005505 -0.269475
v 6.522049 0.063225 0.541808
v 6.541452 0.399837 0.749325
v 6.707167 0.703889 0.667886
v 6.983745 0.765738 0.358961
v 7.139431 0.659654 0.046131
v 7.196988 0.328716 -0.189000
v -2.945273 -0.472863 3.377476
v -3.345495 -0.512318 3.089311
v -3.510402 -0.052723 3.159759
v -3.009409 -0.176947 3.434554
v -3.996410 -0.375190 2.891233
v -3.922302 0.001329 3.003840
v -3.993419 0.526927 3.148762
v -3.447656 0.422019 3.228048
v -2.981099 0.306182 3.483255
v -3.248990 0.932096 3.614088
v -3.446931 1.047123 3.465401
v -3.548756 1.128357 3.807311
v -3.268499 0.982212 3.896790
v -3.715479 1.035462 3.464644
v -3.865103 1.114409 3.705662
v -3.932051 1.044299 3.972693
v -3.686671 1.049498 4.137051
v -3.426822 0.932350 4.134548
v -3.863131 0.033585 4.607851
v -4.122914 0.143593 4.589278
v -4.201635 -0.183164 4.682951
v -3.859284 -0.234639 4.707063
v -4.388358 0.149966 4.439590
v -4.515501 -0.089233 4.496838
v -4.394569 -0.353531 4.622406
v -4.083570 -0.538765 4.805727
v -3.709238 -0.505388 4.841958
v -3.239007 -0.631609 4.461555
v -3.921736 -0.652812 4.242212
v -3.644078 -0.666505 3.608027
v -2.978831 -0.635264 3.821791
v -4.719228 -0.370473 3.990604
v -4.340395 -0.508657 3.365678
v -4.662501 -0.186155 2.830447
v -4.921345 -0.249085 3.064297
v -4.953089 0.089065 3.019483
v -4.633986 0.079607 2.711187
v -5.040194 -0.147504 3.373710
v -5.123630 0.129714 3.415476
v -3.007171 -0.210470 3.922381
v -3.275269 -0.207257 4.435750
v -3.011535 0.327980 3.951359
v -3.346903 0.383896 4.467228
v -4.330178 0.681026 3.429760
v -4.424006 0.582392 4.009342
v -3.934888 0.579277 4.399269
v -4.830770 0.104955 4.074498
v -4.746524 -0.407993 3.177739
v -4.436936 -0.298889 2.781452
v -5.000965 -0.241169 3.592734
v -4.981562 0.095443 3.800251
v -4.815847 0.399495 3.718812
v -4.539269 0.461344 3.409887
v -4.383584 0.355260 3.097058
v -4.326027 0.024322 2.861927
v 4.462091 0.155363 3.557456
v 4.085924 -0.159771 3.196089
v 3.697401 0.277599 2.979865
v 4.240112 0.513419 3.481112
v 3.313281 -0.132342 2.577420
v 3.269664 0.229296 2.644722
v 2.630899 1.024585 2.891631
v 3.427422 1.053162 3.104689
v 3.999341 1.157251 3.588539
v 3.361823 1.858530 3.581010
v 3.090150 1.824296 3.279350
v 2.824724 1.983008 3.735439
v 3.238751 1.963690 3.946016
v 2.735166 1.641525 3.209556
v 2.389518 1.759622 3.571698
v 2.255371 1.691749 3.941341
v 2.589487 1.881286 4.171878
v 2.991372 1.862693 4.239230
v 2.687785 0.638829 5.290516
v 2.285370 0.654809 5.224030
v 2.271799 0.199948 5.383539
v 2.764400 0.305588 5.481191
v 1.994951 0.565792 4.967237
v 1.885778 0.155074 5.045927
v 2.113850 -0.114399 5.299321
v 2.535438 -0.185632 5.653348
v 2.992190 0.032446 5.773810
v 3.839078 -0.053432 5.055142
v 3.137048 -0.406259 4.732574
v 3.468519 -0.347315 3.807055
v 4.502747 -0.043231 4.268530
v 1.923178 -0.414600 4.058108
v 2.823698 -0.592731 3.525342
v 2.321876 -0.342535 2.521740
v 1.977385 -0.511846 2.836326
v 1.710339 -0.068315 2.611884
v 2.249474 0.003556 2.278297
v 1.608510 -0.363131 3.126185
v 1.372420 -0.029736 3.080303
v 4.237993 0.555276 4.233945
v 3.815308 0.493678 4.881844
v 3.824981 1.249013 4.221617
v 3.262767 1.232697 4.809484
v 2.106454 1.183827 3.135635
v 1.839716 0.969376 4.035928
v 2.585589 1.369515 4.719565
v 2.490364 1.038985 4.972366
v 3.087894 0.861133 5.114190
v 1.920615 0.827491 4.672680
v 1.452976 0.109363 3.992929
v 1.605588 0.153421 4.525005
v 1.982506 -0.281310 4.870731
v 2.724210 -0.377656 5.278413
v 3.353979 -0.056726 5.612323
v 3.397105 0.434959 5.273571
v 2.357263 -0.658958 3.163551
v 2.783657 -0.372917 2.469416
v 1.627153 -0.431348 3.440234
v 1.438370 0.047791 3.655490
v 1.556924 0.529718 3.494826
v 2.038462 0.770764 2.834105
v 2.525265 0.505155 2.648818
v 2.934460 0.108972 2.514914
vt 0.375000 0.000000
vt 0.500000 0.000000
vt 0.500000 0.125000
vt 0.375000 0.125000
vt 0.625000 0.000000
vt 0.593750 0.125000
vt 0.625000 0.250000
vt 0.500000 0.218750
vt 0.375000 0.250000
vt 0.430556 0.305556
vt 0.500000 0.281250
vt 0.500000 0.375000
vt 0.406250 0.375000
vt 0.569444 0.305556
vt 0.593750 0.375000
vt 0.569444 0.444444
vt 0.500000 0.468750
vt 0.430556 0.444444
vt 0.430556 0.555556
vt 0.500000 0.531250
vt 0.500000 0.625000
vt 0.406250 0.625000
vt 0.569444 0.555556
vt 0.593750 0.625000
vt 0.569444 0.694444
vt 0.500000 0.718750
vt 0.430556 0.694444
vt 0.375000 0.750000
vt 0.500000 0.781250
vt 0.500000 0.875000
vt 0.375000 0.875000
vt 0.625000 0.750000
vt 0.625000 0.875000
vt 0.625000 1.000000
vt 0.500000 1.000000
vt 0.375000 1.000000
vt 0.680556 0.055556
vt 0.750000 0.031250
vt 0.750000 0.125000
vt 0.656250 0.125000
vt 0.819444 0.055556
vt 0.843750 0.125000
vt 0.125000 0.000000
vt 0.250000 0.000000
vt 0.250000 0.125000
vt 0.125000 0.125000
vt 0.250000 0.250000
vt 0.125000 0.250000
vt 0.625000 0.375000
vt 0.625000 0.500000
vt 0.500000 0.500000
vt 0.375000 0.500000
vt 0.375000 0.375000
vt 0.625000 0.625000
vt 0.375000 0.625000
vt 0.750000 0.000000
vt 0.750000 0.000000
vt 0.656250 0.031250
vt 0.875000 0.000000
vt 0.843750 0.031250
vt 0.875000 0.125000
vt 0.875000 0.125000
vt 0.875000 0.250000
vt 0.843750 0.218750
vt 0.750000 0.250000
vt 0.750000 0.250000
vt 0.656250 0.218750
vt 0.625000 0.125000
vt 0.375000 0.000000
vt 0.500000 0.000000
vt 0.500000 0.125000
vt 0.375000 0.125000
vt 0.625000 0.000000
vt 0.593750 0.125000
vt 0.625000 0.250000
vt 0.500000 0.218750
vt 0.375000 0.250000
vt 0.430556 0.305556
vt 0.500000 0.281250
vt 0.500000 0.375000
vt 0.406250 0.375000
vt 0.569444 0.305556
vt 0.593750 0.375000
vt 0.569444 0.444444
vt 0.500000 0.468750
vt 0.430556 0.444444
vt 0.430556 0.555556
vt 0.500000 0.531250
vt 0.500000 0.625000
vt 0.406250 0.625000
vt 0.569444 0.555556
vt 0.593750 0.625000
vt 0.569444 0.694444
vt 0.500000 0.718750
vt 0.430556 0.694444
vt 0.375000 0.750000
vt 0.500000 0.781250
vt 0.500000 0.875000
vt 0.375000 0.875000
vt 0.625000 0.750000
vt 0.625000 0.875000
vt 0.625000 1.000000
vt 0.500000 1.000000
vt 0.375000 1.000000
vt 0.680556 0.055556
vt 0.750000 0.031250
vt 0.750000 0.125000
vt 0.656250 0.125000
vt 0.819444 0.055556
vt 0.843750 0.125000
vt 0.125000 0.000000
vt 0.250000 0.000000
vt 0.250000 0.125000
vt 0.125000 0.125000
vt 0.250000 0.250000
vt 0.125000 0.250000
vt 0.625000 0.375000
vt 0.625000 0.500000
vt 0.500000 0.500000
vt 0.375000 0.500000
vt 0.375000 0.375000
vt 0.625000 0.625000
vt 0.375000 0.625000
vt 0.750000 0.000000
vt 0.750000 0.000000
vt 0.656250 0.031250
vt 0.875000 0.000000
vt 0.843750 0.031250
vt 0.875000 0.125000
vt 0.875000 0.125000
vt 0.875000 0.250000
vt 0.843750 0.218750
vt 0.750000 0.250000
vt 0.750000 0.250000
vt 0.656250 0.218750
vt 0.625000 0.125000
vt 0.375000 0.000000
vt 0.500000 0.000000
vt 0.500000 0.125000
vt 0.375000 0.125000
vt 0.625000 0.000000
vt 0.593750 0.125000
vt 0.625000 0.250000
vt 0.500000 0.218750
vt 0.375000 0.250000
vt 0.430556 0.305556
vt 0.500000 0.281250
vt 0.500000 0.375000
vt 0.406250 0.375000
vt 0.569444 0.305556
vt 0.593750 0.375000
vt 0.569444 0.444444
vt 0.500000 0.468750
vt 0.430556 0.444444
vt 0.430556 0.555556
vt 0.500000 0.531250
vt 0.500000 0.625000
vt 0.406250 0.625000
vt 0.569444 0.555556
vt 0.593750 0.625000
vt 0.569444 0.694444
vt 0.500000 0.718750
vt 0.430556 0.694444
vt 0.375000 0.750000
vt 0.500000 0.781250
vt 0.500000 0.875000
vt 0.375000 0.875000
vt 0.625000 0.750000
vt 0.625000 0.875000
vt 0.625000 1.000000
vt 0.500000 1.000000
vt 0.375000 1.000000
vt 0.680556 0.055556
vt 0.750000 0.031250
vt 0.750000 0.125000
vt 0.656250 0.125000
vt 0.819444 0.055556
vt 0.843750 0.125000
vt 0.125000 0.000000
vt 0.250000 0.000000
vt 0.250000 0.125000
vt 0.125000 0.125000
vt 0.250000 0.250000
vt 0.125000 0.250000
vt 0.625000 0.375000
vt 0.625000 0.500000
vt 0.500000 0.500000
vt 0.375000 0.500000
vt 0.375000 0.375000
vt 0.500000 0.500000
vt 0.406250 0.531250
vt 0.593750 0.531250
vt 0.625000 0.625000
vt 0.625000 0.625000
vt 0.593750 0.718750
vt 0.500000 0.750000
vt 0.406250 0.718750
vt 0.375000 0.625000
vt 0.375000 0.625000
vt 0.750000 0.000000
vt 0.750000 0.000000
vt 0.656250 0.031250
vt 0.875000 0.000000
vt 0.843750 0.031250
vt 0.875000 0.125000
vt 0.875000 0.125000
vt 0.875000 0.250000
vt 0.843750 0.218750
vt 0.750000 0.250000
vt 0.750000 0.250000
vt 0.656250 0.218750
vt 0.625000 0.125000
vn 0.5261 0.2942 -0.7979
vn 0.3451 0.2363 -0.9083
vn 0.2652 0.2031 -0.9426
vn 0.4909 0.0595 -0.8692
vn 0.5087 0.8571 -0.0814
vn 0.0039 0.9647 -0.2634
vn -0.1273 0.9717 0.1989
vn 0.3554 0.8543 0.3793
vn 0.0148 0.3067 0.9517
vn -0.4163 0.3726 0.8294
vn -0.4382 0.1836 0.8799
vn -0.0696 0.3539 0.9327
vn 0.0304 -0.9992 0.0264
vn -0.2743 -0.9613 -0.0271
vn -0.0962 -0.9377 -0.3338
vn 0.1810 -0.9511 -0.2502
vn -0.6604 -0.2002 -0.7237
vn -0.9228 -0.1744 -0.3434
vn 0.9087 0.0325 0.4161
vn 0.9917 0.1147 0.0574
vn 0.9992 -0.0256 0.0292
vn 0.8630 0.0311 0.5042
vn 0.5720 0.3416 -0.7457
vn 0.1354 0.4075 -0.9031
vn -0.3573 0.6825 -0.6376
vn -0.6851 0.7283 0.0151
vn -0.4864 0.5922 0.6424
vn 0.1127 0.4871 0.8660
vn 0.7752 0.3797 0.5048
vn 0.9255 0.3779 0.0254
vn 0.0348 0.3608 0.9320
vn -0.4751 0.5652 0.6744
vn -0.5705 0.5319 0.6258
vn -0.8473 -0.2396 0.4741
vn -0.4353 -0.8866 0.1565
vn -0.0083 -0.9704 0.2415
vn 0.5195 0.3222 0.7914
vn 0.3178 0.1022 0.9426
vn -0.0828 -0.9422 -0.3246
vn -0.3584 -0.9319 0.0551
vn -0.6950 -0.7128 -0.0940
vn -0.4015 -0.7247 -0.5600
vn -0.8310 -0.2690 0.4869
vn -0.6768 0.5807 0.4525
vn -0.7861 0.5185 0.3364
vn -0.9496 -0.1978 0.2432
vn -0.5306 0.8449 -0.0686
vn -0.3778 0.6912 -0.6161
vn -0.3381 0.8444 -0.4155
vn -0.4763 0.8345 -0.2770
vn 0.1403 0.4191 -0.8970
vn 0.3004 0.1791 -0.9369
vn 0.1554 -0.1015 -0.9826
vn 0.4416 0.5694 -0.6934
vn 0.4416 0.5694 -0.6933
vn 0.6110 0.1859 -0.7695
vn 0.6093 0.1859 -0.7709
vn 0.3526 0.4038 -0.8442
vn 0.5675 0.3278 -0.7553
vn 0.1548 0.9596 -0.2351
vn -0.2802 0.8262 -0.4888
vn -0.4626 0.8862 -0.0255
vn -0.0381 0.9690 0.2440
vn -0.2036 0.3839 0.9006
vn -0.6640 0.2845 0.6915
vn -0.6434 0.1208 0.7559
vn -0.3427 0.4489 0.8252
vn 0.2970 -0.9454 0.1344
vn 0.0651 -0.9886 0.1358
vn 0.2712 -0.9418 -0.1989
vn 0.4358 -0.8972 -0.0719
vn -0.3691 -0.5861 -0.7213
vn -0.6584 -0.5893 -0.4682
vn 0.7542 0.2963 0.5860
vn 0.8898 0.4557 0.0254
vn 0.8981 0.4338 0.0725
vn 0.6691 0.4842 0.5638
vn 0.5665 0.4532 -0.6882
vn 0.1613 0.3540 -0.9212
vn -0.3339 0.5788 -0.7440
vn -0.8516 0.4999 -0.1577
vn -0.7019 0.5017 0.5056
vn -0.0035 0.6992 0.7149
vn 0.5025 0.6667 0.5505
vn 0.7443 0.6615 0.0913
vn 0.0102 0.6194 0.7850
vn -0.6032 0.7084 0.3665
vn -0.5729 0.5937 0.5650
vn -0.0475 0.6072 0.7932
vn -0.8984 0.3847 0.2117
vn -0.7752 -0.5988 0.2012
vn -0.8332 -0.3549 0.4241
vn -0.8370 0.2981 0.4589
vn -0.0961 -0.9910 0.0931
vn 0.3194 -0.9050 0.2808
vn 0.1551 -0.8006 0.5788
vn -0.3592 -0.8614 0.3591
vn 0.6770 0.3152 0.6651
vn 0.4823 0.4998 0.7195
vn 0.1582 0.4785 0.8637
vn 0.2406 0.6518 0.7192
vn 0.3743 -0.9049 -0.2026
vn -0.1447 -0.9701 0.1948
vn -0.3623 -0.9280 -0.0864
vn -0.0455 -0.8970 -0.4397
vn -0.7767 -0.5549 0.2980
vn -0.9271 0.3587 0.1092
vn -0.9622 0.2617 0.0750
vn -0.8750 -0.4759 0.0882
vn -0.8033 0.5518 -0.2240
vn -0.1402 0.5185 -0.8435
vn -0.3143 0.4987 -0.8078
vn -0.7479 0.4820 -0.4564
vn 0.1501 0.4183 -0.8958
vn 0.2243 0.1011 -0.9693
vn 0.1694 -0.2443 -0.9548
vn 0.2122 0.5025 -0.8382
usemtl lambert7SG
s off
f 1/1/1 2/2/1 3/3/1 4/4/1
f 2/2/2 5/5/2 6/6/2 3/3/2
f 3/3/3 6/6/3 7/7/3 8/8/3
f 4/4/4 3/3/4 8/8/4 9/9/4
f 10/10/5 11/11/5 12/12/5 13/13/5
f 11/11/6 14/14/6 15/15/6 12/12/6
f 12/12/7 15/15/7 16/16/7 17/17/7
f 13/13/8 12/12/8 17/17/8 18/18/8
f 19/19/9 20/20/9 21/21/9 22/22/9
f 20/20/10 23/23/10 24/24/10 21/21/10
f 21/21/11 24/24/11 25/25/11 26/26/11
f 22/22/12 21/21/12 26/26/12 27/27/12
f 28/28/13 29/29/13 30/30/13 31/31/13
f 29/29/14 32/32/14 33/33/14 30/30/14
f 30/30/15 33/33/15 5/34/15 2/35/15
f 31/31/16 30/30/16 2/35/16 1/36/16
f 34/37/17 35/38/17 36/39/17 37/40/17
f 35/38/18 38/41/18 39/42/18 36/39/18
f 28/43/19 31/44/19 40/45/19 41/46/19
f 31/44/20 1/1/20 4/4/20 40/45/20
f 40/45/21 4/4/21 9/9/21 42/47/21
f 41/46/22 40/45/22 42/47/22 43/48/22
f 9/9/23 8/8/23 11/11/23 10/10/23
f 8/8/24 7/7/24 14/14/24 11/11/24
f 7/7/25 44/49/25 15/15/25 14/14/25
f 44/49/26 45/50/26 16/16/26 15/15/26
f 45/50/27 46/51/27 17/17/27 16/16/27
f 46/51/28 43/52/28 18/18/28 17/17/28
f 43/52/29 42/53/29 13/13/29 18/18/29
f 42/53/30 9/9/30 10/10/30 13/13/30
f 43/52/31 46/51/31 20/20/31 19/19/31
f 46/51/32 45/50/32 23/23/32 20/20/32
f 45/50/33 47/54/33 24/24/33 23/23/33
f 47/54/34 32/32/34 25/25/34 24/24/34
f 32/32/35 29/29/35 26/26/35 25/25/35
f 29/29/36 28/28/36 27/27/36 26/26/36
f 28/28/37 41/55/37 22/22/37 27/27/37
f 41/55/38 43/52/38 19/19/38 22/22/38
f 5/5/39 33/56/39 48/57/39 49/58/39
f 33/56/40 32/59/40 50/60/40 48/57/40
f 48/57/41 50/60/41 38/41/41 35/38/41
f 49/58/42 48/57/42 35/38/42 34/37/42
f 32/59/43 47/61/43 51/62/43 50/60/43
f 47/61/44 45/63/44 52/64/44 51/62/44
f 51/62/45 52/64/45 39/42/45
f 50/60/46 51/62/46 39/42/46 38/41/46
f 45/63/47 44/65/47 53/66/47 52/64/47
f 44/65/48 7/7/48 54/67/48 53/66/48
f 36/39/49 53/66/49 54/67/49 37/40/49
f 52/64/50 53/66/50 36/39/50 39/42/50
f 7/7/51 6/6/51 55/68/51 54/67/51
f 6/6/52 5/5/52 49/58/52 55/68/52
f 55/68/53 49/58/53 34/37/53 37/40/53
f 54/67/54 55/68/54 37/40/54
usemtl lambert7SG.001
f 56/69/1 57/70/1 58/71/1 59/72/1
f 57/70/2 60/73/2 61/74/2 58/71/2
f 58/71/3 61/74/3 62/75/3 63/76/3
f 59/72/4 58/71/4 63/76/4 64/77/4
f 65/78/5 66/79/5 67/80/5 68/81/5
f 66/79/6 69/82/6 70/83/6 67/80/6
f 67/80/7 70/83/7 71/84/7 72/85/7
f 68/81/8 67/80/8 72/85/8 73/86/8
f 74/87/9 75/88/9 76/89/9 77/90/9
f 75/88/10 78/91/10 79/92/10 76/89/10
f 76/89/11 79/92/11 80/93/11 81/94/11
f 77/90/12 76/89/12 81/94/12 82/95/12
f 83/96/13 84/97/13 85/98/13 86/99/13
f 84/97/14 87/100/14 88/101/14 85/98/14
f 85/98/15 88/101/15 60/102/15 57/103/15
f 86/99/16 85/98/16 57/103/16 56/104/16
f 89/105/17 90/106/17 91/107/17 92/108/17
f 90/106/18 93/109/18 94/110/18 91/107/18
f 83/111/19 86/112/19 95/113/19 96/114/19
f 86/112/20 56/69/20 59/72/20 95/113/20
f 95/113/21 59/72/21 64/77/21 97/115/21
f 96/114/22 95/113/22 97/115/22 98/116/22
f 64/77/23 63/76/23 66/79/23 65/78/23
f 63/76/24 62/75/24 69/82/24 66/79/24
f 62/75/25 99/117/25 70/83/25 69/82/25
f 99/117/26 100/118/26 71/84/26 70/83/26
f 100/118/27 101/119/27 72/85/27 71/84/27
f 101/119/28 98/120/28 73/86/28 72/85/28
f 98/120/29 97/121/29 68/81/29 73/86/29
f 97/121/30 64/77/30 65/78/30 68/81/30
f 98/120/31 101/119/31 75/88/31 74/87/31
f 101/119/32 100/118/32 78/91/32 75/88/32
f 100/118/33 102/122/33 79/92/33 78/91/33
f 102/122/34 87/100/34 80/93/34 79/92/34
f 87/100/35 84/97/35 81/94/35 80/93/35
f 84/97/36 83/96/36 82/95/36 81/94/36
f 83/96/37 96/123/37 77/90/37 82/95/37
f 96/123/38 98/120/38 74/87/38 77/90/38
f 60/73/39 88/124/39 103/125/39 104/126/39
f 88/124/40 87/127/40 105/128/40 103/125/40
f 103/125/41 105/128/41 93/109/41 90/106/41
f 104/126/42 103/125/42 90/106/42 89/105/42
f 87/127/43 102/129/43 106/130/43 105/128/43
f 102/129/44 100/131/44 107/132/44 106/130/44
f 106/130/45 107/132/45 94/110/45
f 105/128/46 106/130/46 94/110/46 93/109/46
f 100/131/47 99/133/47 108/134/47 107/132/47
f 99/133/48 62/75/48 109/135/48 108/134/48
f 91/107/49 108/134/49 109/135/49 92/108/49
f 107/132/50 108/134/50 91/107/50 94/110/50
f 62/75/51 61/74/51 110/136/51 109/135/51
f 61/74/52 60/73/52 104/126/52 110/136/52
f 110/136/53 104/126/53 89/105/53 92/108/53
f 109/135/55 110/136/55 92/108/55
f 111/137/56 112/138/56 113/139/56 114/140/56
f 112/138/57 115/141/57 116/142/57 113/139/57
f 113/139/58 116/142/58 117/143/58 118/144/58
f 114/140/59 113/139/59 118/144/59 119/145/59
f 120/146/60 121/147/60 122/148/60 123/149/60
f 121/147/61 124/150/61 125/151/61 122/148/61
f 122/148/62 125/151/62 126/152/62 127/153/62
f 123/149/63 122/148/63 127/153/63 128/154/63
f 129/155/64 130/156/64 131/157/64 132/158/64
f 130/156/65 133/159/65 134/160/65 131/157/65
f 131/157/66 134/160/66 135/161/66 136/162/66
f 132/158/67 131/157/67 136/162/67 137/163/67
f 138/164/68 139/165/68 140/166/68 141/167/68
f 139/165/69 142/168/69 143/169/69 140/166/69
f 140/166/70 143/169/70 115/170/70 112/171/70
f 141/167/71 140/166/71 112/171/71 111/172/71
f 144/173/72 145/174/72 146/175/72 147/176/72
f 145/174/73 148/177/73 149/178/73 146/175/73
f 138/179/74 141/180/74 150/181/74 151/182/74
f 141/180/75 111/137/75 114/140/75 150/181/75
f 150/181/76 114/140/76 119/145/76 152/183/76
f 151/182/77 150/181/77 152/183/77 153/184/77
f 119/145/78 118/144/78 121/147/78 120/146/78
f 118/144/79 117/143/79 124/150/79 121/147/79
f 117/143/80 154/185/80 125/151/80 124/150/80
f 154/185/81 155/186/81 126/152/81 125/151/81
f 155/186/82 156/187/82 127/153/82 126/152/82
f 156/187/83 153/188/83 128/154/83 127/153/83
f 153/188/84 152/189/84 123/149/84 128/154/84
f 152/189/85 119/145/85 120/146/85 123/149/85
f 153/188/86 156/187/86 157/190/86 158/191/86
f 156/187/87 155/186/87 159/192/87 157/190/87
f 157/190/88 159/192/88 133/159/88 130/156/88
f 158/191/89 157/190/89 130/156/89 129/155/89
f 155/186/90 160/193/90 161/194/90 159/192/90
f 160/193/91 142/168/91 162/195/91 161/194/91
f 161/194/92 162/195/92 135/161/92 134/160/92
f 159/192/93 161/194/93 134/160/93 133/159/93
f 142/168/94 139/165/94 163/196/94 162/195/94
f 139/165/95 138/164/95 164/197/95 163/196/95
f 163/196/96 164/197/96 137/163/96 136/162/96
f 162/195/97 163/196/97 136/162/97 135/161/97
f 138/164/98 151/198/98 165/199/98 164/197/98
f 151/198/99 153/188/99 158/191/99 165/199/99
f 165/199/100 158/191/100 129/155/100 132/158/100
f 164/197/101 165/199/101 132/158/101 137/163/101
f 115/141/102 143/200/102 166/201/102 167/202/102
f 143/200/103 142/203/103 168/204/103 166/201/103
f 166/201/104 168/204/104 148/177/104 145/174/104
f 167/202/105 166/201/105 145/174/105 144/173/105
f 142/203/106 160/205/106 169/206/106 168/204/106
f 160/205/107 155/207/107 170/208/107 169/206/107
f 169/206/108 170/208/108 149/178/108
f 168/204/109 169/206/109 149/178/109 148/177/109
f 155/207/110 154/209/110 171/210/110 170/208/110
f 154/209/111 117/143/111 172/211/111 171/210/111
f 146/175/112 171/210/112 172/211/112 147/176/112
f 170/208/113 171/210/113 146/175/113 149/178/113
f 117/143/114 116/142/114 173/212/114 172/211/114
f 116/142/115 115/141/115 167/202/115 173/212/115
f 173/212/116 167/202/116 144/173/116 147/176/116
f 172/211/117 173/212/117 147/176/117
